<?xml version="1.0" encoding="iso-8859-1"?>
<!-- Generator: Adobe Illustrator 17.1.0, SVG Export Plug-In . SVG Version: 6.00 Build 0)  -->
<!DOCTYPE svg PUBLIC "-//W3C//DTD SVG 1.1//EN" "http://www.w3.org/Graphics/SVG/1.1/DTD/svg11.dtd">
<svg version="1.1" id="Capa_1" xmlns="http://www.w3.org/2000/svg" xmlns:xlink="http://www.w3.org/1999/xlink" x="0px" y="0px"
	 viewBox="0 0 279 279" style="enable-background:new 0 0 279 279;" xml:space="preserve">
<path d="M277.408,83.631C275.987,81.813,273.808,81,271.5,81h-26.917V39.5c0-4.143-3.024-7.5-7.167-7.5h-198
	c-4.143,0-7.833,3.357-7.833,7.5V81H7.5c-2.311,0-4.492,0.815-5.913,2.637c-1.422,1.822-1.924,4.072-1.361,6.313l37.881,151.188
	c0.837,3.336,3.835,5.862,7.274,5.862h188.571c3.445,0,6.447-2.597,7.278-5.94l37.548-151
	C279.335,87.82,278.83,85.449,277.408,83.631z M221.916,145h-165c-4.143,0-7.5-3.357-7.5-7.5s3.357-7.5,7.5-7.5h165
	c4.143,0,7.5,3.357,7.5,7.5S226.059,145,221.916,145z M229.583,81h-183V47h183V81z"/>
<g>
</g>
<g>
</g>
<g>
</g>
<g>
</g>
<g>
</g>
<g>
</g>
<g>
</g>
<g>
</g>
<g>
</g>
<g>
</g>
<g>
</g>
<g>
</g>
<g>
</g>
<g>
</g>
<g>
</g>
</svg>
